A stray cat is the linking element of three tales of suspense and horror.


Director:
Lewis Teague

Writer:
Stephen King (screenplay)

--------------------------------------------------------------------------------------
Format                                   : MPEG-4
Format profile                           : Base Media / Version 2
Codec ID                                 : mp42
File size                                : 593 MiB
Duration                                 : 1h 34mn
Overall bit rate                         : 879 Kbps
Encoded date                             : UTC 2012-10-27 20:44:38
Tagged date                              : UTC 2012-10-27 21:44:01
Writing application                      : HandBrake 0.9.8 2012071700

Video
ID                                       : 1
Format                                   : AVC
Format/Info                              : Advanced Video Codec
Format profile                           : Main@L2.2
Format settings, CABAC                   : Yes
Format settings, ReFrames                : 4 frames
Codec ID                                 : avc1
Codec ID/Info                            : Advanced Video Coding
Duration                                 : 1h 34mn
Bit rate mode                            : Variable
Bit rate                                 : 684 Kbps
Width                                    : 640 pixels
Height                                   : 320 pixels
Display aspect ratio                     : 2.35:1
Frame rate mode                          : Variable
Frame rate                               : 23.976 fps
Minimum frame rate                       : 23.974 fps
Maximum frame rate                       : 23.981 fps
Color space                              : YUV
Chroma subsampling                       : 4:2:0
Bit depth                                : 8 bits
Scan type                                : Progressive
Bits/(Pixel*Frame)                       : 0.139
Stream size                              : 461 MiB (78%)
Writing library                          : x264 core 120
Encoding settings                        : cabac=1 / ref=1 / deblock=1:0:0 / 
Encoded date                             : UTC 2012-10-27 20:44:38
Tagged date                              : UTC 2012-10-27 21:44:01
Color primaries                          : BT.601 NTSC
Transfer characteristics                 : BT.709
Matrix coefficients                      : BT.601

Audio
ID                                       : 2
Format                                   : AC-3
Format/Info                              : Audio Coding 3
Format profile                           : Dolby Digital
Mode extension                           : CM (complete main)
Format settings, Endianness              : Big
Codec ID                                 : ac-3
Duration                                 : 1h 34mn
Bit rate mode                            : Constant
Bit rate                                 : 192 Kbps
Channel(s)                               : 2 channels
Channel positions                        : Front: L R
Sampling rate                            : 48.0 KHz
Bit depth                                : 16 bits
Compression mode                         : Lossy
Delay relative to video                  : 83ms
Stream size                              : 129 MiB (22%)
Encoded date                             : UTC 2012-10-27 20:44:38
Tagged date                              : UTC 2012-10-27 21:44:01

--------------------------------------------------------------------------------------

Screens:
 
http://img819.imageshack.us/img819/7411/vlcsnap2012102801h06m27.png 
http://img827.imageshack.us/img827/8277/vlcsnap2012102801h08m00.png 
http://img688.imageshack.us/img688/6915/vlcsnap2012102801h08m20.png 
http://img515.imageshack.us/img515/656/vlcsnap2012102801h08m38.png 
http://img688.imageshack.us/img688/443/vlcsnap2012102801h09m05.png



